<svg width="40" height="40" fill="none" xmlns="http://www.w3.org/2000/svg">
  <path stroke="#C6CBCD" d="M.89.5H39.5v38.61H.89z"/>
  <path d="M28.27 11H12.02A1.02 1.02 0 0 0 11 12.02v16.25a1.02 1.02 0 0 0 1.02 1.01h16.25a1.02 1.02 0 0 0 1.01-1.01V12.02A1.02 1.02 0 0 0 28.27 11ZM16.42 26.58h-2.71v-8.73h2.71v8.73Zm-1.35-9.92a1.57 1.57 0 1 1 0-3.14 1.57 1.57 0 0 1 0 3.14Zm11.5 9.92h-2.7v-4.25c0-1-.02-2.3-1.41-2.3-1.41 0-1.63 1.1-1.63 2.23v4.32h-2.7v-8.73h2.6v1.2h.03a2.85 2.85 0 0 1 2.56-1.41c2.75 0 3.26 1.8 3.26 4.15v4.79Z" fill="#C6CBCD"/>
</svg>
