<svg width="104" height="15" fill="none" xmlns="http://www.w3.org/2000/svg">
  <path d="M9.01 11.94h-4.6l-.81 2.6H0L5.12.6h3.16l5.16 13.96H9.83L9 11.94Zm-3.8-2.6h3L6.7 4.5 5.2 9.34Zm20.34.48a4.75 4.75 0 0 1-2.8 4.3c-.87.41-1.86.62-2.97.62-1.84 0-3.28-.6-4.34-1.8-1.05-1.2-1.58-2.88-1.58-5.06V7.2c0-1.37.24-2.56.71-3.58A5.4 5.4 0 0 1 19.74.39a6 6 0 0 1 4.08 1.34 5.27 5.27 0 0 1 1.76 3.68h-3.36c-.02-.85-.24-1.46-.64-1.83-.4-.37-1.02-.56-1.84-.56-.84 0-1.45.31-1.84.94-.4.63-.6 1.63-.61 3v.99c0 1.49.18 2.55.55 3.2.38.63 1.02.95 1.94.95.77 0 1.36-.18 1.77-.55.41-.36.63-.94.65-1.73h3.35Zm12.26-6.64h-4.19v11.37h-3.36V3.18h-4.12V.58h11.67v2.6Zm5.02 11.37h-3.36V.59h3.36v13.96Zm7.75-3.8L53.36.59h3.76l-4.7 13.96h-3.68L44.08.59h3.73l2.77 10.16ZM66.8 8.63h-5.29v3.33h6.25v2.59h-9.61V.59h9.63v2.6h-6.27v2.94h5.3v2.5Z" fill="#656980"/>
  <path d="M69.48 14.54V.58h3.67c1.5 0 2.63.3 3.4.92.77.6 1.16 1.49 1.16 2.65a3.3 3.3 0 0 1-.64 2.1 2.9 2.9 0 0 1-1.81 1.07c.88.11 1.61.5 2.2 1.15.59.64.88 1.38.88 2.22 0 1.19-.38 2.13-1.16 2.82a4.66 4.66 0 0 1-3.2 1.03h-4.5Zm.51-6.9v6.38h4.04c1.18 0 2.1-.3 2.78-.87a3.05 3.05 0 0 0 1.02-2.44c0-.88-.33-1.6-.98-2.18a3.92 3.92 0 0 0-2.62-.89H70Zm0-.51h3.35c1.27 0 2.23-.25 2.88-.73.64-.5.96-1.26.96-2.29 0-1.98-1.3-2.98-3.92-3.02H70v6.04ZM91.21 8.6a7.6 7.6 0 0 1-.65 3.21 4.96 4.96 0 0 1-1.84 2.16c-.8.5-1.72.76-2.76.76a4.81 4.81 0 0 1-3.82-1.68 6.68 6.68 0 0 1-1.46-4.53v-2c0-1.21.22-2.28.65-3.21a4.95 4.95 0 0 1 4.6-2.92 4.92 4.92 0 0 1 4.62 2.93c.44.93.66 2 .66 3.2V8.6Zm-.52-2.1a6.1 6.1 0 0 0-1.28-4.06A4.3 4.3 0 0 0 85.94.9c-1.44 0-2.59.51-3.44 1.53a6.18 6.18 0 0 0-1.29 4.13V8.6c0 1.11.2 2.1.58 2.95.39.85.94 1.5 1.65 1.97.72.46 1.56.69 2.52.69 1.45 0 2.6-.5 3.46-1.52.85-1.02 1.27-2.4 1.27-4.17V6.5Zm7.44.51 4.5-6.43h.66L98.46 7.4l5.01 7.13h-.64l-4.7-6.72-4.71 6.72h-.63l5.02-7.13L92.97.58h.66L98.13 7Z" fill="#fff"/>
</svg>
