<svg width="41" height="40" fill="none" xmlns="http://www.w3.org/2000/svg">
  <path stroke="#C6CBCD" d="M1.2.5h38.61v38.61H1.2z"/>
  <path d="M27.75 15.21c.02.18.02.36.02.53 0 5.41-4.12 11.64-11.64 11.64-2.32 0-4.47-.67-6.29-1.83a8.2 8.2 0 0 0 6.07-1.7A4.1 4.1 0 0 1 12.1 21a4.35 4.35 0 0 0 1.85-.08 4.09 4.09 0 0 1-3.28-4v-.06c.54.3 1.17.5 1.84.52a4.08 4.08 0 0 1-1.26-5.47 11.64 11.64 0 0 0 8.43 4.28 4.09 4.09 0 0 1 6.98-3.74 7.8 7.8 0 0 0 2.6-.98 4.1 4.1 0 0 1-1.8 2.25c.81-.1 1.6-.3 2.35-.63a8.78 8.78 0 0 1-2.05 2.11Z" fill="#C6CBCD"/>
</svg>
