<svg width="41" height="40" viewBox="0 0 41 40" fill="none" xmlns="http://www.w3.org/2000/svg">
<rect x="1.20312" y="0.5" width="38.6094" height="38.6094" stroke="#C6CBCD"/>
<path d="M27.7523 15.212C27.7655 15.3898 27.7655 15.5665 27.7655 15.7432C27.7655 21.1514 23.6491 27.3833 16.1264 27.3833C13.8087 27.3833 11.6556 26.712 9.84375 25.546C10.1728 25.5836 10.4897 25.5968 10.832 25.5968C12.6733 25.6012 14.4625 24.9855 15.9111 23.8489C15.0574 23.8335 14.2298 23.5518 13.5439 23.0432C12.858 22.5347 12.3481 21.8247 12.0852 21.0123C12.3381 21.0498 12.592 21.0752 12.8581 21.0752C13.2248 21.0752 13.5934 21.0245 13.9357 20.9361C13.0092 20.749 12.1761 20.2468 11.5781 19.5149C10.98 18.783 10.6539 17.8665 10.6552 16.9213V16.8705C11.2006 17.1742 11.8334 17.3641 12.5037 17.3895C11.9421 17.0164 11.4817 16.51 11.1634 15.9156C10.8451 15.3213 10.6789 14.6574 10.6796 13.9831C10.6796 13.2234 10.8817 12.5267 11.2362 11.9194C12.2641 13.1838 13.5462 14.2183 14.9994 14.9557C16.4526 15.6932 18.0445 16.1172 19.672 16.2002C19.609 15.8955 19.5704 15.5797 19.5704 15.2628C19.5701 14.7255 19.6758 14.1934 19.8813 13.697C20.0867 13.2005 20.3881 12.7494 20.768 12.3695C21.1479 11.9896 21.599 11.6882 22.0955 11.4827C22.5919 11.2772 23.124 11.1716 23.6613 11.1719C24.8395 11.1719 25.9028 11.6655 26.6503 12.4638C27.5662 12.2866 28.4445 11.9523 29.2463 11.4755C28.941 12.4209 28.3015 13.2225 27.4476 13.7302C28.2599 13.6376 29.0537 13.424 29.8028 13.0965C29.2433 13.9121 28.5501 14.6274 27.7523 15.212Z" fill="#C6CBCD"/>
</svg>
